<?xml version="1.0" encoding="UTF-8" standalone="no" ?>
<!DOCTYPE svg PUBLIC "-//W3C//DTD SVG 1.1//EN" "http://www.w3.org/Graphics/SVG/1.1/DTD/svg11.dtd">
<svg xmlns="http://www.w3.org/2000/svg" xmlns:xlink="http://www.w3.org/1999/xlink" version="1.1" width="1280" height="1024" viewBox="0 0 1280 1024" xml:space="preserve">
<desc>Created with Fabric.js 4.4.0</desc>
<defs>
</defs>
<g transform="matrix(1 0 0 1 640 512)" id="background-logo"  >
<rect style="stroke: none; stroke-width: 0; stroke-dasharray: none; stroke-linecap: butt; stroke-dashoffset: 0; stroke-linejoin: miter; stroke-miterlimit: 4; fill: rgb(41,57,61); fill-rule: nonzero; opacity: 1;"  paint-order="stroke"  x="-640" y="-512" rx="0" ry="0" width="1280" height="1024" />
</g>
<g transform="matrix(1.9211538461538462 0 0 1.9211538461538462 640 388.8872701282641)" id="logo-logo"  >
<g style=""  paint-order="stroke"   >
		<g transform="matrix(0.28853783666892163 0 0 0.28853783666892163 12.228233518028901 34.23175181961656)"  >
<linearGradient id="SVGID_1_10_898365" gradientUnits="userSpaceOnUse" gradientTransform="matrix(1 0 0 1 0 0)"  x1="594.0149" y1="1003.7474" x2="1026.3452" y2="754.1414">
<stop offset="0%" style="stop-color:rgb(3,63,84);stop-opacity: 1"/>
<stop offset="12.73%" style="stop-color:rgb(6,71,91);stop-opacity: 1"/>
<stop offset="32.95%" style="stop-color:rgb(15,94,110);stop-opacity: 1"/>
<stop offset="58.13%" style="stop-color:rgb(30,132,141);stop-opacity: 1"/>
<stop offset="87.02%" style="stop-color:rgb(50,183,184);stop-opacity: 1"/>
<stop offset="100%" style="stop-color:rgb(60,209,205);stop-opacity: 1"/>
</linearGradient>
<path style="stroke: none; stroke-width: 1; stroke-dasharray: none; stroke-linecap: butt; stroke-dashoffset: 0; stroke-linejoin: miter; stroke-miterlimit: 4; fill: url(#SVGID_1_10_898365); fill-rule: nonzero; opacity: 1;"  paint-order="stroke"  transform=" translate(-792.3799999999999, -868.6386929867199)" d="M 1046.6 838.78 C 1046.6 979.18 932.7699999999999 1093 792.3799999999999 1093 C 653.8799999999999 1093 541.2299999999999 982.24 538.2199999999999 844.46 C 538.2099999999999 844.1800000000001 538.2099999999999 843.89 538.2099999999999 843.59 C 538.1999999999999 843.09 538.18 842.57 538.18 842.0600000000001 C 538.17 841.7800000000001 538.17 841.49 538.17 841.19 C 538.16 840.3900000000001 538.16 839.58 538.16 838.7800000000001 C 538.16 923.0200000000001 606.4599999999999 991.3100000000001 690.6899999999999 991.3100000000001 C 774.92 991.3100000000001 843.2199999999999 923.0100000000001 843.2199999999999 838.7800000000001 C 843.2199999999999 763.8900000000001 782.5199999999999 703.19 707.6299999999999 703.19 C 763.6099999999999 646.49 848.1399999999999 628.85 922.1299999999999 658.45 C 996.12 688.04 1045.16 759.1 1046.6 838.78 z" stroke-linecap="round" />
</g>
		<g transform="matrix(0.28853783666892163 0 0 0.28853783666892163 -12.234004274762242 -34.23239248070513)"  >
<linearGradient id="SVGID_2_11_898366" gradientUnits="userSpaceOnUse" gradientTransform="matrix(1 0 0 1 0 0)"  x1="707.6021" y1="855.72" x2="707.6021" y2="407">
<stop offset="0%" style="stop-color:rgb(221,215,206);stop-opacity: 1"/>
<stop offset="55.78999999999999%" style="stop-color:rgb(239,233,223);stop-opacity: 1"/>
<stop offset="100%" style="stop-color:rgb(247,241,231);stop-opacity: 1"/>
</linearGradient>
<path style="stroke: none; stroke-width: 1; stroke-dasharray: none; stroke-linecap: butt; stroke-dashoffset: 0; stroke-linejoin: miter; stroke-miterlimit: 4; fill: url(#SVGID_2_11_898366); fill-rule: nonzero; opacity: 1;"  paint-order="stroke"  transform=" translate(-707.5999999999999, -631.3590866421287)" d="M 588.99 661.22 C 587.53 710.89 611.76 757.8100000000001 653.11 785.38 C 694.45 812.9399999999999 747.09 817.26 792.37 796.81 C 736.39 853.51 651.86 871.14 577.87 841.55 C 503.88 811.9499999999999 454.84000000000003 740.89 453.4 661.2199999999999 C 453.4 520.83 567.23 407 707.63 407 C 846.13 407 958.78 517.76 961.79 655.54 C 961.8 655.8199999999999 961.8 656.11 961.8 656.41 C 959.24 555.67 876.77 474.78999999999996 775.42 474.78999999999996 C 672.46 474.79 588.99 558.26 588.99 661.22 z" stroke-linecap="round" />
</g>
		<g transform="matrix(0.28853783666892163 0 0 0.28853783666892163 2.446880742632686 32.813652763650765)"  >
<linearGradient id="SVGID_3_12_898367" gradientUnits="userSpaceOnUse" gradientTransform="matrix(1 0 0 1 0 0)"  x1="661.0888" y1="1037.009" x2="869.3129" y2="676.3542">
<stop offset="0%" style="stop-color:rgb(60,209,205);stop-opacity: 1"/>
<stop offset="13.28%" style="stop-color:rgb(58,203,200);stop-opacity: 1"/>
<stop offset="31.04%" style="stop-color:rgb(51,186,186);stop-opacity: 1"/>
<stop offset="51.339999999999996%" style="stop-color:rgb(40,158,163);stop-opacity: 1"/>
<stop offset="73.50999999999999%" style="stop-color:rgb(25,119,131);stop-opacity: 1"/>
<stop offset="96.98%" style="stop-color:rgb(6,70,90);stop-opacity: 1"/>
<stop offset="100%" style="stop-color:rgb(3,63,84);stop-opacity: 1"/>
</linearGradient>
<path style="stroke: none; stroke-width: 1; stroke-dasharray: none; stroke-linecap: butt; stroke-dashoffset: 0; stroke-linejoin: miter; stroke-miterlimit: 4; fill: url(#SVGID_3_12_898367); fill-rule: nonzero; opacity: 1;"  paint-order="stroke"  transform=" translate(-758.4802768707256, -863.7239162200494)" d="M 978.8 838.78 C 978.8 960.47 880.16 1059.11 758.4699999999999 1059.11 C 638.68 1059.11 541.2299999999999 963.5299999999999 538.2099999999999 844.4599999999999 C 538.1999999999999 844.18 538.1999999999999 843.8899999999999 538.1999999999999 843.5899999999999 C 538.1899999999999 843.0899999999999 538.17 842.5699999999999 538.17 842.06 C 538.16 841.78 538.16 841.4899999999999 538.16 841.1899999999999 C 538.15 840.39 538.15 839.5799999999999 538.15 838.78 C 538.15 923.02 606.4499999999999 991.31 690.68 991.31 C 774.91 991.31 843.2099999999999 923.01 843.2099999999999 838.78 C 843.2099999999999 763.89 782.5099999999999 703.1899999999999 707.6199999999999 703.1899999999999 C 758.7999999999998 663.9 827.9299999999998 657.28 885.6299999999999 686.13 C 943.35 714.98 979.52 774.26 978.8 838.78 z" stroke-linecap="round" />
</g>
		<g transform="matrix(0.28853783666892163 0 0 0.28853783666892163 -2.454094189898285 -32.81221007446749)"  >
<linearGradient id="SVGID_4_13_898368" gradientUnits="userSpaceOnUse" gradientTransform="matrix(1 0 0 1 0 0)"  x1="816.2829" y1="784.6805" x2="633.9522" y2="468.8745">
<stop offset="0%" style="stop-color:rgb(247,241,231);stop-opacity: 1"/>
<stop offset="23.89%" style="stop-color:rgb(239,233,223);stop-opacity: 1"/>
<stop offset="61.809999999999995%" style="stop-color:rgb(216,210,201);stop-opacity: 1"/>
<stop offset="100%" style="stop-color:rgb(186,181,173);stop-opacity: 1"/>
</linearGradient>
<path style="stroke: none; stroke-width: 1; stroke-dasharray: none; stroke-linecap: butt; stroke-dashoffset: 0; stroke-linejoin: miter; stroke-miterlimit: 4; fill: url(#SVGID_4_13_898368); fill-rule: nonzero; opacity: 1;"  paint-order="stroke"  transform=" translate(-741.4947231245992, -636.2810837799502)" d="M 588.99 661.22 C 587.53 710.89 611.76 757.8100000000001 653.11 785.38 C 694.45 812.9399999999999 747.08 817.26 792.37 796.81 C 741.19 836.0999999999999 672.06 842.7199999999999 614.36 813.8699999999999 C 556.65 785.0199999999999 520.48 725.7399999999999 521.2 661.2299999999999 C 521.2 539.54 619.84 440.89999999999986 741.5300000000001 440.89999999999986 C 861.32 440.89999999999986 958.7700000000001 536.4799999999999 961.7900000000001 655.5499999999998 C 961.8000000000001 655.8299999999998 961.8000000000001 656.1199999999999 961.8000000000001 656.4199999999998 C 959.2400000000001 555.6799999999998 876.7700000000001 474.79999999999984 775.4200000000001 474.79999999999984 C 672.46 474.79 588.99 558.26 588.99 661.22 z" stroke-linecap="round" />
</g>
		<g transform="matrix(0.28853783666892163 0 0 0.28853783666892163 -7.322859639995727 31.107761581743915)"  >
<linearGradient id="SVGID_5_14_898369" gradientUnits="userSpaceOnUse" gradientTransform="matrix(1 0 0 1 0 0)"  x1="612.0568" y1="989.9078" x2="869.1004" y2="732.8643">
<stop offset="0%" style="stop-color:rgb(60,209,205);stop-opacity: 1"/>
<stop offset="17.41%" style="stop-color:rgb(59,205,202);stop-opacity: 1"/>
<stop offset="33.92%" style="stop-color:rgb(54,194,192);stop-opacity: 1"/>
<stop offset="50.09%" style="stop-color:rgb(47,175,176);stop-opacity: 1"/>
<stop offset="66.03999999999999%" style="stop-color:rgb(36,148,154);stop-opacity: 1"/>
<stop offset="81.83%" style="stop-color:rgb(23,113,125);stop-opacity: 1"/>
<stop offset="97.31%" style="stop-color:rgb(6,71,91);stop-opacity: 1"/>
<stop offset="100%" style="stop-color:rgb(3,63,84);stop-opacity: 1"/>
</linearGradient>
<path style="stroke: none; stroke-width: 1; stroke-dasharray: none; stroke-linecap: butt; stroke-dashoffset: 0; stroke-linejoin: miter; stroke-miterlimit: 4; fill: url(#SVGID_5_14_898369); fill-rule: nonzero; opacity: 1;"  paint-order="stroke"  transform=" translate(-724.620799391387, -857.8117239003147)" d="M 793.61 883.08 C 793.61 909.72 772 931.33 745.36 931.33 C 730.5500000000001 931.33 717.3100000000001 924.6600000000001 708.46 914.1600000000001 C 707.5500000000001 913.08 707.37 911.58 707.99 910.32 L 707.99 910.32 C 708.88 908.5500000000001 711.03 907.9000000000001 712.79 908.8100000000001 C 716.76 910.87 721.27 912.0300000000001 726.05 912.0300000000001 C 742.04 912.0300000000001 755 899.0600000000001 755 883.08 C 755 878.3100000000001 753.71 873.85 751.45 870.01 C 744.36 858.01 756.5500000000001 843.66 769.5500000000001 848.68 C 769.69 848.7299999999999 769.83 848.79 769.97 848.8399999999999 C 784.02 854.47 793.34 867.96 793.61 883.08 z M 669.5 904.73 C 666.56 901.77 662.11 900.69 658.24 902.25 C 652.45 904.58 645.57 903.39 640.89 898.69 C 639.02 896.8100000000001 637.71 894.57 636.97 892.2 C 636.65 891.1700000000001 635.5400000000001 890.59 634.52 890.9300000000001 L 634.52 890.9300000000001 C 633.77 891.1800000000001 633.26 891.85 633.1899999999999 892.6400000000001 C 632.53 900.2 635.0799999999999 907.9900000000001 640.8599999999999 913.7900000000001 C 647.2499999999999 920.21 656.0999999999999 922.71 664.3999999999999 921.2600000000001 C 672.12 919.91 675.03 910.3 669.5 904.73 L 669.5 904.73 z M 846.89 714.62 C 805.55 687.0600000000001 752.92 682.73 707.63 703.19 C 782.52 703.19 843.22 763.8900000000001 843.22 838.7800000000001 C 843.22 923.0200000000001 774.9200000000001 991.3100000000001 690.69 991.3100000000001 C 606.46 991.3100000000001 538.1600000000001 923.0100000000001 538.1600000000001 838.7800000000001 C 538.1600000000001 839.58 538.1600000000001 840.3900000000001 538.1700000000001 841.19 C 538.1700000000001 841.49 538.1700000000001 841.7700000000001 538.1800000000001 842.0600000000001 C 538.1800000000001 842.58 538.19 843.09 538.21 843.59 C 540.77 944.33 623.24 1025.21 724.59 1025.21 C 827.5500000000001 1025.21 911.02 941.74 911.02 838.78 C 912.47 789.11 888.24 742.18 846.89 714.62 z" stroke-linecap="round" />
</g>
		<g transform="matrix(0.28853783666892163 0 0 0.28853783666892163 -2.443915476585744 -45.17636908725302)"  >
<linearGradient id="SVGID_6_15_898370" gradientUnits="userSpaceOnUse" gradientTransform="matrix(1 0 0 1 0 0)"  x1="690.6809" y1="593.4314" x2="792.3708" y2="593.4314">
<stop offset="0%" style="stop-color:rgb(221,215,206);stop-opacity: 1"/>
<stop offset="55.78999999999999%" style="stop-color:rgb(239,233,223);stop-opacity: 1"/>
<stop offset="100%" style="stop-color:rgb(247,241,231);stop-opacity: 1"/>
</linearGradient>
<path style="stroke: none; stroke-width: 1; stroke-dasharray: none; stroke-linecap: butt; stroke-dashoffset: 0; stroke-linejoin: miter; stroke-miterlimit: 4; fill: url(#SVGID_6_15_898370); fill-rule: nonzero; opacity: 1;"  paint-order="stroke"  transform=" translate(-741.53, -593.4300000000001)" d="M 741.53 542.59 C 741.53 570.6700000000001 718.76 593.4300000000001 690.6899999999999 593.4300000000001 C 718.77 593.4300000000001 741.53 616.2 741.53 644.2700000000001 C 741.53 616.19 764.3 593.4300000000001 792.37 593.4300000000001 C 764.29 593.43 741.53 570.66 741.53 542.59 z" stroke-linecap="round" />
</g>
		<g transform="matrix(0.28853783666892163 0 0 0.28853783666892163 -22.006780802738604 -25.613503761100134)"  >
<linearGradient id="SVGID_7_16_898371" gradientUnits="userSpaceOnUse" gradientTransform="matrix(1 0 0 1 0 0)"  x1="656.7843" y1="661.2246" x2="690.6809" y2="661.2246">
<stop offset="0%" style="stop-color:rgb(221,215,206);stop-opacity: 1"/>
<stop offset="55.78999999999999%" style="stop-color:rgb(239,233,223);stop-opacity: 1"/>
<stop offset="100%" style="stop-color:rgb(247,241,231);stop-opacity: 1"/>
</linearGradient>
<path style="stroke: none; stroke-width: 1; stroke-dasharray: none; stroke-linecap: butt; stroke-dashoffset: 0; stroke-linejoin: miter; stroke-miterlimit: 4; fill: url(#SVGID_7_16_898371); fill-rule: nonzero; opacity: 1;"  paint-order="stroke"  transform=" translate(-673.73, -661.23)" d="M 673.73 644.28 C 673.73 653.64 666.14 661.23 656.78 661.23 C 666.14 661.23 673.73 668.82 673.73 678.1800000000001 C 673.73 668.82 681.32 661.23 690.6800000000001 661.23 C 681.32 661.22 673.73 653.64 673.73 644.28 z" stroke-linecap="round" />
</g>
		<g transform="matrix(0.28853783666892163 0 0 0.28853783666892163 17.116064471200502 -64.73634903503921)"  >
<linearGradient id="SVGID_8_17_898372" gradientUnits="userSpaceOnUse" gradientTransform="matrix(1 0 0 1 0 0)"  x1="792.3708" y1="525.6382" x2="826.2674" y2="525.6382">
<stop offset="0%" style="stop-color:rgb(221,215,206);stop-opacity: 1"/>
<stop offset="55.78999999999999%" style="stop-color:rgb(239,233,223);stop-opacity: 1"/>
<stop offset="100%" style="stop-color:rgb(247,241,231);stop-opacity: 1"/>
</linearGradient>
<path style="stroke: none; stroke-width: 1; stroke-dasharray: none; stroke-linecap: butt; stroke-dashoffset: 0; stroke-linejoin: miter; stroke-miterlimit: 4; fill: url(#SVGID_8_17_898372); fill-rule: nonzero; opacity: 1;"  paint-order="stroke"  transform=" translate(-809.32, -525.64)" d="M 809.32 508.69 C 809.32 518.05 801.73 525.64 792.37 525.64 C 801.73 525.64 809.32 533.23 809.32 542.59 C 809.32 533.23 816.9100000000001 525.64 826.2700000000001 525.64 C 816.91 525.64 809.32 518.05 809.32 508.69 z" stroke-linecap="round" />
</g>
		<g transform="matrix(0.28853783666892163 0 0 0.28853783666892163 36.67604441898669 -45.17636908725302)"  >
<linearGradient id="SVGID_9_18_898373" gradientUnits="userSpaceOnUse" gradientTransform="matrix(1 0 0 1 0 0)"  x1="860.164" y1="593.4314" x2="894.0606" y2="593.4314">
<stop offset="0%" style="stop-color:rgb(221,215,206);stop-opacity: 1"/>
<stop offset="55.78999999999999%" style="stop-color:rgb(239,233,223);stop-opacity: 1"/>
<stop offset="100%" style="stop-color:rgb(247,241,231);stop-opacity: 1"/>
</linearGradient>
<path style="stroke: none; stroke-width: 1; stroke-dasharray: none; stroke-linecap: butt; stroke-dashoffset: 0; stroke-linejoin: miter; stroke-miterlimit: 4; fill: url(#SVGID_9_18_898373); fill-rule: nonzero; opacity: 1;"  paint-order="stroke"  transform=" translate(-877.11, -593.4300000000001)" d="M 877.11 576.48 C 877.11 585.84 869.52 593.4300000000001 860.16 593.4300000000001 C 869.52 593.4300000000001 877.11 601.0200000000001 877.11 610.3800000000001 C 877.11 601.0200000000001 884.7 593.4300000000001 894.0600000000001 593.4300000000001 C 884.7 593.43 877.11 585.84 877.11 576.48 z" stroke-linecap="round" />
</g>
</g>
</g>
<g transform="matrix(1.9211538461538462 0 0 1.9211538461538462 639.1364413461537 668.2250952463635)" id="text-logo"  >
<g style=""  paint-order="stroke"   >
		<g transform="matrix(1 0 0 1 0 0)" id="text-logo-path-0"  >
<path style="stroke: none; stroke-width: 0; stroke-dasharray: none; stroke-linecap: butt; stroke-dashoffset: 0; stroke-linejoin: miter; stroke-miterlimit: 4; fill: rgb(243,237,227); fill-rule: nonzero; opacity: 1;"  paint-order="stroke"  transform=" translate(-308.82, 28.52)" d="M 9.73 0 L 2.73 0 Q 2.48 0 2.48 -0.31 L 2.48 -0.31 L 2.6 -42.9 Q 2.6 -43.15 2.85 -43.15 L 2.85 -43.15 L 10.42 -43.15 Q 10.66 -43.15 10.85 -42.9 L 10.85 -42.9 L 16.49 -34.72 L 22.13 -42.9 Q 22.32 -43.15 22.57 -43.15 L 22.57 -43.15 L 30.19 -43.15 Q 30.44 -43.15 30.44 -42.9 L 30.44 -42.9 L 30.57 -0.31 Q 30.57 0 30.32 0 L 30.32 0 L 23.31 0 Q 23.06 0 23.06 -0.31 L 23.06 -0.31 L 23 -31.93 L 16.49 -22.51 L 10.04 -31.93 L 9.98 -0.31 Q 9.98 0 9.73 0 L 9.73 0 Z M 43.52 -0.31 L 43.52 -0.31 L 51.21 -42.9 Q 51.27 -43.15 51.52 -43.15 L 51.52 -43.15 L 60.51 -43.15 Q 60.76 -43.15 60.82 -42.9 L 60.82 -42.9 L 68.2 -0.31 Q 68.26 0 67.95 0 L 67.95 0 L 61.07 0 Q 60.82 0 60.76 -0.31 L 60.76 -0.31 L 60.08 -4.84 L 51.65 -4.84 L 50.96 -0.31 Q 50.9 0 50.65 0 L 50.65 0 L 43.77 0 Q 43.52 0 43.52 -0.31 Z M 55.68 -28.89 L 52.89 -11.47 L 58.84 -11.47 L 56.3 -28.89 L 55.92 -31.19 L 55.68 -28.89 Z M 55.92 -45.94 L 55.92 -45.94 Q 53.63 -45.94 51.89 -47.71 Q 50.16 -49.48 50.16 -51.77 L 50.16 -51.77 Q 50.16 -54.19 51.89 -55.92 Q 53.63 -57.66 55.92 -57.66 L 55.92 -57.66 Q 58.16 -57.66 59.89 -55.92 Q 61.63 -54.19 61.63 -51.77 L 61.63 -51.77 Q 61.63 -49.29 59.86 -47.62 Q 58.09 -45.94 55.92 -45.94 Z M 55.86 -48.86 L 55.86 -48.86 Q 56.98 -48.86 57.78 -49.72 Q 58.59 -50.59 58.59 -51.77 L 58.59 -51.77 Q 58.59 -53.01 57.78 -53.88 Q 56.98 -54.75 55.86 -54.75 L 55.86 -54.75 Q 54.68 -54.75 53.88 -53.88 Q 53.07 -53.01 53.07 -51.77 L 53.07 -51.77 Q 53.07 -50.59 53.88 -49.72 Q 54.68 -48.86 55.86 -48.86 Z M 88.72 0 L 82.52 0 Q 82.03 0 82.03 -0.43 L 82.03 -0.43 L 81.96 -42.66 Q 81.96 -43.15 82.46 -43.15 L 82.46 -43.15 L 88.04 -43.15 L 98.52 -18.72 L 98.21 -42.66 Q 98.21 -43.15 98.77 -43.15 L 98.77 -43.15 L 104.9 -43.15 Q 105.28 -43.15 105.28 -42.66 L 105.28 -42.66 L 105.34 -0.37 Q 105.34 0 105.03 0 L 105.03 0 L 99.57 0 L 88.85 -22.82 L 89.28 -0.5 Q 89.28 0 88.72 0 L 88.72 0 Z M 140.86 0 L 120.84 0 Q 120.59 0 120.59 -0.31 L 120.59 -0.31 L 120.65 -42.9 Q 120.65 -43.15 120.9 -43.15 L 120.9 -43.15 L 140.8 -43.15 Q 141.05 -43.15 141.05 -42.84 L 141.05 -42.84 L 141.05 -35.9 Q 141.05 -35.65 140.8 -35.65 L 140.8 -35.65 L 128.09 -35.65 L 128.09 -25.98 L 140.8 -25.98 Q 141.05 -25.98 141.05 -25.73 L 141.05 -25.73 L 141.11 -18.72 Q 141.11 -18.48 140.86 -18.48 L 140.86 -18.48 L 128.09 -18.48 L 128.09 -7.63 L 140.86 -7.63 Q 141.11 -7.63 141.11 -7.32 L 141.11 -7.32 L 141.11 -0.25 Q 141.11 0 140.86 0 L 140.86 0 Z M 163.74 0 L 156.74 0 Q 156.49 0 156.49 -0.31 L 156.49 -0.31 L 156.61 -42.9 Q 156.61 -43.15 156.86 -43.15 L 156.86 -43.15 L 164.42 -43.15 Q 164.67 -43.15 164.86 -42.9 L 164.86 -42.9 L 170.5 -34.72 L 176.14 -42.9 Q 176.33 -43.15 176.58 -43.15 L 176.58 -43.15 L 184.2 -43.15 Q 184.45 -43.15 184.45 -42.9 L 184.45 -42.9 L 184.57 -0.31 Q 184.57 0 184.33 0 L 184.33 0 L 177.32 0 Q 177.07 0 177.07 -0.31 L 177.07 -0.31 L 177.01 -31.93 L 170.5 -22.51 L 164.05 -31.93 L 163.99 -0.31 Q 163.99 0 163.74 0 L 163.74 0 Z M 197.53 -0.31 L 197.53 -0.31 L 205.22 -42.9 Q 205.28 -43.15 205.53 -43.15 L 205.53 -43.15 L 214.52 -43.15 Q 214.77 -43.15 214.83 -42.9 L 214.83 -42.9 L 222.21 -0.31 Q 222.27 0 221.96 0 L 221.96 0 L 215.08 0 Q 214.83 0 214.77 -0.31 L 214.77 -0.31 L 214.09 -4.84 L 205.65 -4.84 L 204.97 -0.31 Q 204.91 0 204.66 0 L 204.66 0 L 197.78 0 Q 197.53 0 197.53 -0.31 Z M 209.68 -28.89 L 206.89 -11.47 L 212.85 -11.47 L 210.3 -28.89 L 209.93 -31.19 L 209.68 -28.89 Z M 242.73 0 L 236.53 0 Q 236.03 0 236.03 -0.43 L 236.03 -0.43 L 235.97 -42.66 Q 235.97 -43.15 236.47 -43.15 L 236.47 -43.15 L 242.05 -43.15 L 252.53 -18.72 L 252.22 -42.66 Q 252.22 -43.15 252.77 -43.15 L 252.77 -43.15 L 258.91 -43.15 Q 259.28 -43.15 259.28 -42.66 L 259.28 -42.66 L 259.35 -0.37 Q 259.35 0 259.04 0 L 259.04 0 L 253.58 0 L 242.85 -22.82 L 243.29 -0.5 Q 243.29 0 242.73 0 L 242.73 0 Z M 286.01 -0.06 L 274.91 0 Q 274.6 0 274.6 -0.31 L 274.6 -0.31 L 274.72 -42.9 Q 274.72 -43.15 274.97 -43.15 L 274.97 -43.15 L 286.56 -43.21 Q 289.97 -43.28 292.8 -41.6 Q 295.62 -39.93 297.29 -37.11 Q 298.96 -34.29 298.96 -30.88 L 298.96 -30.88 L 298.96 -13.08 Q 298.96 -9.49 297.23 -6.54 Q 295.49 -3.6 292.58 -1.86 Q 289.66 -0.12 286.01 -0.06 L 286.01 -0.06 Z M 282.22 -35.71 L 282.16 -7.63 L 286.01 -7.63 Q 288.3 -7.63 289.88 -9.24 Q 291.46 -10.85 291.46 -13.08 L 291.46 -13.08 L 291.46 -30.94 Q 291.46 -32.92 290 -34.38 Q 288.55 -35.84 286.56 -35.77 L 286.56 -35.77 L 282.22 -35.71 Z M 333.99 0 L 313.97 0 Q 313.72 0 313.72 -0.31 L 313.72 -0.31 L 313.78 -42.9 Q 313.78 -43.15 314.03 -43.15 L 314.03 -43.15 L 333.93 -43.15 Q 334.18 -43.15 334.18 -42.84 L 334.18 -42.84 L 334.18 -35.9 Q 334.18 -35.65 333.93 -35.65 L 333.93 -35.65 L 321.22 -35.65 L 321.22 -25.98 L 333.93 -25.98 Q 334.18 -25.98 334.18 -25.73 L 334.18 -25.73 L 334.24 -18.72 Q 334.24 -18.48 333.99 -18.48 L 333.99 -18.48 L 321.22 -18.48 L 321.22 -7.63 L 333.99 -7.63 Q 334.24 -7.63 334.24 -7.32 L 334.24 -7.32 L 334.24 -0.25 Q 334.24 0 333.99 0 L 333.99 0 Z M 356.38 0 L 350.18 0 Q 349.68 0 349.68 -0.43 L 349.68 -0.43 L 349.62 -42.66 Q 349.62 -43.15 350.11 -43.15 L 350.11 -43.15 L 355.69 -43.15 L 366.17 -18.72 L 365.86 -42.66 Q 365.86 -43.15 366.42 -43.15 L 366.42 -43.15 L 372.56 -43.15 Q 372.93 -43.15 372.93 -42.66 L 372.93 -42.66 L 372.99 -0.37 Q 372.99 0 372.68 0 L 372.68 0 L 367.23 0 L 356.5 -22.82 L 356.93 -0.5 Q 356.93 0 356.38 0 L 356.38 0 Z M 398.78 0.62 L 398.78 0.62 Q 395.44 0.62 392.68 -1.08 Q 389.92 -2.79 388.28 -5.61 Q 386.63 -8.43 386.63 -11.84 L 386.63 -11.84 L 386.63 -14.69 Q 386.63 -15 386.94 -15 L 386.94 -15 L 393.89 -15 Q 394.13 -15 394.13 -14.69 L 394.13 -14.69 L 394.13 -11.84 Q 394.13 -9.8 395.5 -8.34 Q 396.86 -6.88 398.78 -6.88 L 398.78 -6.88 Q 400.71 -6.88 402.07 -8.37 Q 403.43 -9.86 403.43 -11.84 L 403.43 -11.84 Q 403.43 -14.14 400.46 -15.81 L 400.46 -15.81 Q 399.47 -16.37 397.36 -17.55 Q 395.25 -18.72 393.39 -19.78 L 393.39 -19.78 Q 389.98 -21.76 388.34 -24.77 Q 386.69 -27.78 386.69 -31.56 L 386.69 -31.56 Q 386.69 -35.03 388.37 -37.79 Q 390.04 -40.55 392.8 -42.16 Q 395.56 -43.77 398.78 -43.77 L 398.78 -43.77 Q 402.07 -43.77 404.83 -42.13 Q 407.59 -40.49 409.23 -37.73 Q 410.87 -34.97 410.87 -31.56 L 410.87 -31.56 L 410.87 -26.47 Q 410.87 -26.23 410.63 -26.23 L 410.63 -26.23 L 403.68 -26.23 Q 403.43 -26.23 403.43 -26.47 L 403.43 -26.47 L 403.37 -31.56 Q 403.37 -33.73 402.01 -35.09 Q 400.64 -36.46 398.78 -36.46 L 398.78 -36.46 Q 396.86 -36.46 395.5 -35 Q 394.13 -33.54 394.13 -31.56 L 394.13 -31.56 Q 394.13 -29.51 395 -28.15 Q 395.87 -26.78 398.16 -25.54 L 398.16 -25.54 Q 398.47 -25.36 399.37 -24.89 Q 400.27 -24.43 401.33 -23.84 Q 402.38 -23.25 403.22 -22.82 Q 404.05 -22.38 404.24 -22.26 L 404.24 -22.26 Q 407.34 -20.52 409.14 -18.01 Q 410.94 -15.5 410.94 -11.84 L 410.94 -11.84 Q 410.94 -8.31 409.29 -5.49 Q 407.65 -2.67 404.89 -1.02 Q 402.13 0.62 398.78 0.62 Z M 451.42 0 L 444.48 0 Q 444.17 0 444.17 -0.31 L 444.17 -0.31 L 444.29 -42.9 Q 444.29 -43.15 444.54 -43.15 L 444.54 -43.15 L 456.44 -43.15 Q 462.15 -43.15 465.47 -39.68 Q 468.78 -36.21 468.78 -30.26 L 468.78 -30.26 Q 468.78 -25.85 467.05 -22.63 Q 465.31 -19.41 462.52 -17.67 Q 459.73 -15.93 456.44 -15.93 L 456.44 -15.93 L 451.73 -15.93 L 451.73 -0.31 Q 451.73 0 451.42 0 L 451.42 0 Z M 451.73 -35.71 L 451.73 -23.44 L 456.44 -23.44 Q 458.43 -23.44 459.89 -25.33 Q 461.34 -27.22 461.34 -30.26 L 461.34 -30.26 Q 461.34 -32.67 460.04 -34.22 Q 458.74 -35.77 456.44 -35.77 L 456.44 -35.77 L 451.73 -35.71 Z M 502.63 0 L 482.61 0 Q 482.36 0 482.36 -0.31 L 482.36 -0.31 L 482.42 -42.9 Q 482.42 -43.15 482.67 -43.15 L 482.67 -43.15 L 502.57 -43.15 Q 502.82 -43.15 502.82 -42.84 L 502.82 -42.84 L 502.82 -35.9 Q 502.82 -35.65 502.57 -35.65 L 502.57 -35.65 L 489.86 -35.65 L 489.86 -25.98 L 502.57 -25.98 Q 502.82 -25.98 502.82 -25.73 L 502.82 -25.73 L 502.88 -18.72 Q 502.88 -18.48 502.63 -18.48 L 502.63 -18.48 L 489.86 -18.48 L 489.86 -7.63 L 502.63 -7.63 Q 502.88 -7.63 502.88 -7.32 L 502.88 -7.32 L 502.88 -0.25 Q 502.88 0 502.63 0 L 502.63 0 Z M 525.02 0 L 518.82 0 Q 518.32 0 518.32 -0.43 L 518.32 -0.43 L 518.26 -42.66 Q 518.26 -43.15 518.75 -43.15 L 518.75 -43.15 L 524.33 -43.15 L 534.81 -18.72 L 534.5 -42.66 Q 534.5 -43.15 535.06 -43.15 L 535.06 -43.15 L 541.2 -43.15 Q 541.57 -43.15 541.57 -42.66 L 541.57 -42.66 L 541.63 -0.37 Q 541.63 0 541.32 0 L 541.32 0 L 535.87 0 L 525.14 -22.82 L 525.57 -0.5 Q 525.57 0 525.02 0 L 525.02 0 Z M 568.23 0.62 L 568.23 0.62 Q 564.88 0.62 562.15 -1.05 Q 559.43 -2.73 557.78 -5.55 Q 556.14 -8.37 556.14 -11.84 L 556.14 -11.84 L 556.14 -31.5 Q 556.14 -34.84 557.78 -37.66 Q 559.43 -40.49 562.18 -42.16 Q 564.94 -43.83 568.23 -43.83 L 568.23 -43.83 Q 571.64 -43.83 574.4 -42.19 Q 577.16 -40.55 578.77 -37.76 Q 580.38 -34.97 580.38 -31.5 L 580.38 -31.5 L 580.38 -28.64 Q 580.38 -28.4 580.07 -28.4 L 580.07 -28.4 L 573.13 -28.4 Q 572.88 -28.4 572.88 -28.64 L 572.88 -28.64 L 572.88 -31 Q 572.88 -33.36 571.55 -34.91 Q 570.21 -36.46 568.23 -36.46 L 568.23 -36.46 Q 566.43 -36.46 565.04 -34.97 Q 563.64 -33.48 563.64 -31.5 L 563.64 -31.5 L 563.64 -11.84 Q 563.64 -9.8 565.01 -8.34 Q 566.37 -6.88 568.23 -6.88 L 568.23 -6.88 Q 570.21 -6.88 571.55 -8.31 Q 572.88 -9.73 572.88 -11.84 L 572.88 -11.84 L 572.88 -14.88 L 568.54 -14.88 Q 568.23 -14.88 568.23 -15.19 L 568.23 -15.19 L 568.23 -22.13 Q 568.23 -22.44 568.54 -22.44 L 568.54 -22.44 L 580.13 -22.44 Q 580.38 -22.44 580.38 -22.13 L 580.38 -22.13 L 580.38 -11.84 Q 580.38 -8.37 578.74 -5.55 Q 577.1 -2.73 574.37 -1.05 Q 571.64 0.62 568.23 0.62 Z M 614.92 0 L 594.89 0 Q 594.64 0 594.64 -0.31 L 594.64 -0.31 L 594.7 -42.9 Q 594.7 -43.15 594.95 -43.15 L 594.95 -43.15 L 614.85 -43.15 Q 615.1 -43.15 615.1 -42.84 L 615.1 -42.84 L 615.1 -35.9 Q 615.1 -35.65 614.85 -35.65 L 614.85 -35.65 L 602.14 -35.65 L 602.14 -25.98 L 614.85 -25.98 Q 615.1 -25.98 615.1 -25.73 L 615.1 -25.73 L 615.16 -18.72 Q 615.16 -18.48 614.92 -18.48 L 614.92 -18.48 L 602.14 -18.48 L 602.14 -7.63 L 614.92 -7.63 Q 615.16 -7.63 615.16 -7.32 L 615.16 -7.32 L 615.16 -0.25 Q 615.16 0 614.92 0 L 614.92 0 Z" stroke-linecap="round" />
</g>
</g>
</g>
<g transform="matrix(1.9211538461538462 0 0 1.9211538461538462 639.0586346153846 785.222367850349)" id="tagline-65f4d914-51f8-49f3-9827-c72b7124b7e1-logo"  >
<g style=""  paint-order="stroke"   >
		<g transform="matrix(1 0 0 1 5.684342e-14 0)" id="tagline-65f4d914-51f8-49f3-9827-c72b7124b7e1-logo-path-0"  >
<path style="stroke: none; stroke-width: 0; stroke-dasharray: none; stroke-linecap: butt; stroke-dashoffset: 0; stroke-linejoin: miter; stroke-miterlimit: 4; fill: rgb(58,204,201); fill-rule: nonzero; opacity: 1;"  paint-order="stroke"  transform=" translate(-139.3, 12.2)" d="M 0.21 -0.18 L 0.21 -0.18 L 4.55 -24.22 Q 4.59 -24.36 4.73 -24.36 L 4.73 -24.36 L 9.8 -24.36 Q 9.94 -24.36 9.98 -24.22 L 9.98 -24.22 L 14.14 -0.18 Q 14.18 0 14 0 L 14 0 L 10.12 0 Q 9.98 0 9.94 -0.18 L 9.94 -0.18 L 9.56 -2.73 L 4.8 -2.73 L 4.41 -0.18 Q 4.38 0 4.24 0 L 4.24 0 L 0.35 0 Q 0.21 0 0.21 -0.18 Z M 7.07 -16.31 L 5.5 -6.48 L 8.86 -6.48 L 7.42 -16.31 L 7.21 -17.61 L 7.07 -16.31 Z M 35.63 0 L 32.13 0 Q 31.85 0 31.85 -0.25 L 31.85 -0.25 L 31.82 -24.08 Q 31.82 -24.36 32.1 -24.36 L 32.1 -24.36 L 35.25 -24.36 L 41.16 -10.57 L 40.98 -24.08 Q 40.98 -24.36 41.3 -24.36 L 41.3 -24.36 L 44.77 -24.36 Q 44.98 -24.36 44.98 -24.08 L 44.98 -24.08 L 45.01 -0.21 Q 45.01 0 44.84 0 L 44.84 0 L 41.76 0 L 35.7 -12.88 L 35.95 -0.28 Q 35.95 0 35.63 0 L 35.63 0 Z M 62.34 -0.18 L 62.34 -0.18 L 66.67 -24.22 Q 66.71 -24.36 66.85 -24.36 L 66.85 -24.36 L 71.92 -24.36 Q 72.06 -24.36 72.1 -24.22 L 72.1 -24.22 L 76.27 -0.18 Q 76.3 0 76.13 0 L 76.13 0 L 72.24 0 Q 72.1 0 72.06 -0.18 L 72.06 -0.18 L 71.68 -2.73 L 66.92 -2.73 L 66.53 -0.18 Q 66.5 0 66.36 0 L 66.36 0 L 62.48 0 Q 62.34 0 62.34 -0.18 Z M 69.19 -16.31 L 67.62 -6.48 L 70.98 -6.48 L 69.55 -16.31 L 69.34 -17.61 L 69.19 -16.31 Z M 105.39 0 L 94.08 0 Q 93.94 0 93.94 -0.18 L 93.94 -0.18 L 93.98 -24.19 Q 93.98 -24.36 94.15 -24.36 L 94.15 -24.36 L 98.04 -24.36 Q 98.21 -24.36 98.21 -24.19 L 98.21 -24.19 L 98.18 -4.31 L 105.39 -4.31 Q 105.56 -4.31 105.56 -4.13 L 105.56 -4.13 L 105.56 -0.18 Q 105.56 0 105.39 0 L 105.39 0 Z M 129.29 0.35 L 129.29 0.35 Q 127.4 0.35 125.84 -0.61 Q 124.29 -1.58 123.34 -3.17 Q 122.4 -4.76 122.4 -6.69 L 122.4 -6.69 L 122.43 -17.78 Q 122.43 -19.71 123.36 -21.28 Q 124.29 -22.86 125.86 -23.8 Q 127.44 -24.75 129.29 -24.75 L 129.29 -24.75 Q 131.18 -24.75 132.72 -23.8 Q 134.26 -22.86 135.19 -21.28 Q 136.12 -19.71 136.12 -17.78 L 136.12 -17.78 L 136.15 -6.69 Q 136.15 -4.76 135.22 -3.17 Q 134.3 -1.58 132.74 -0.61 Q 131.18 0.35 129.29 0.35 Z M 129.29 -3.89 L 129.29 -3.89 Q 130.34 -3.89 131.13 -4.74 Q 131.92 -5.6 131.92 -6.69 L 131.92 -6.69 L 131.88 -17.78 Q 131.88 -18.94 131.15 -19.74 Q 130.41 -20.55 129.29 -20.55 L 129.29 -20.55 Q 128.21 -20.55 127.44 -19.76 Q 126.67 -18.97 126.67 -17.78 L 126.67 -17.78 L 126.67 -6.69 Q 126.67 -5.53 127.44 -4.71 Q 128.21 -3.89 129.29 -3.89 Z M 160.69 0.35 L 160.69 0.35 Q 158.79 0.35 157.25 -0.6 Q 155.72 -1.54 154.79 -3.13 Q 153.86 -4.73 153.86 -6.69 L 153.86 -6.69 L 153.86 -17.78 Q 153.86 -19.67 154.79 -21.26 Q 155.72 -22.86 157.27 -23.8 Q 158.83 -24.75 160.69 -24.75 L 160.69 -24.75 Q 162.61 -24.75 164.17 -23.82 Q 165.72 -22.89 166.63 -21.32 Q 167.54 -19.74 167.54 -17.78 L 167.54 -17.78 L 167.54 -16.17 Q 167.54 -16.03 167.37 -16.03 L 167.37 -16.03 L 163.45 -16.03 Q 163.31 -16.03 163.31 -16.17 L 163.31 -16.17 L 163.31 -17.5 Q 163.31 -18.83 162.56 -19.71 Q 161.81 -20.58 160.69 -20.58 L 160.69 -20.58 Q 159.67 -20.58 158.88 -19.74 Q 158.09 -18.9 158.09 -17.78 L 158.09 -17.78 L 158.09 -6.69 Q 158.09 -5.53 158.87 -4.71 Q 159.63 -3.89 160.69 -3.89 L 160.69 -3.89 Q 161.81 -3.89 162.56 -4.69 Q 163.31 -5.5 163.31 -6.69 L 163.31 -6.69 L 163.31 -8.4 L 160.86 -8.4 Q 160.69 -8.4 160.69 -8.58 L 160.69 -8.58 L 160.69 -12.5 Q 160.69 -12.67 160.86 -12.67 L 160.86 -12.67 L 167.41 -12.67 Q 167.54 -12.67 167.54 -12.5 L 167.54 -12.5 L 167.54 -6.69 Q 167.54 -4.73 166.62 -3.13 Q 165.69 -1.54 164.15 -0.6 Q 162.61 0.35 160.69 0.35 Z M 217.59 0 L 206.29 0 Q 206.15 0 206.15 -0.18 L 206.15 -0.18 L 206.19 -24.19 Q 206.19 -24.36 206.36 -24.36 L 206.36 -24.36 L 210.25 -24.36 Q 210.42 -24.36 210.42 -24.19 L 210.42 -24.19 L 210.38 -4.31 L 217.59 -4.31 Q 217.77 -4.31 217.77 -4.13 L 217.77 -4.13 L 217.77 -0.18 Q 217.77 0 217.59 0 L 217.59 0 Z M 246.96 0 L 235.66 0 Q 235.52 0 235.52 -0.18 L 235.52 -0.18 L 235.55 -24.22 Q 235.55 -24.36 235.69 -24.36 L 235.69 -24.36 L 246.93 -24.36 Q 247.06 -24.36 247.06 -24.19 L 247.06 -24.19 L 247.06 -20.27 Q 247.06 -20.13 246.93 -20.13 L 246.93 -20.13 L 239.75 -20.13 L 239.75 -14.67 L 246.93 -14.67 Q 247.06 -14.67 247.06 -14.53 L 247.06 -14.53 L 247.1 -10.57 Q 247.1 -10.43 246.96 -10.43 L 246.96 -10.43 L 239.75 -10.43 L 239.75 -4.31 L 246.96 -4.31 Q 247.1 -4.31 247.1 -4.13 L 247.1 -4.13 L 247.1 -0.14 Q 247.1 0 246.96 0 L 246.96 0 Z M 271.53 0.35 L 271.53 0.35 Q 269.64 0.35 268.1 -0.6 Q 266.56 -1.54 265.63 -3.13 Q 264.71 -4.73 264.71 -6.69 L 264.71 -6.69 L 264.71 -17.78 Q 264.71 -19.67 265.63 -21.26 Q 266.56 -22.86 268.12 -23.8 Q 269.68 -24.75 271.53 -24.75 L 271.53 -24.75 Q 273.46 -24.75 275.01 -23.82 Q 276.57 -22.89 277.48 -21.32 Q 278.39 -19.74 278.39 -17.78 L 278.39 -17.78 L 278.39 -16.17 Q 278.39 -16.03 278.22 -16.03 L 278.22 -16.03 L 274.3 -16.03 Q 274.16 -16.03 274.16 -16.17 L 274.16 -16.17 L 274.16 -17.5 Q 274.16 -18.83 273.4 -19.71 Q 272.65 -20.58 271.53 -20.58 L 271.53 -20.58 Q 270.52 -20.58 269.73 -19.74 Q 268.94 -18.9 268.94 -17.78 L 268.94 -17.78 L 268.94 -6.69 Q 268.94 -5.53 269.71 -4.71 Q 270.48 -3.89 271.53 -3.89 L 271.53 -3.89 Q 272.65 -3.89 273.4 -4.69 Q 274.16 -5.5 274.16 -6.69 L 274.16 -6.69 L 274.16 -8.4 L 271.71 -8.4 Q 271.53 -8.4 271.53 -8.58 L 271.53 -8.58 L 271.53 -12.5 Q 271.53 -12.67 271.71 -12.67 L 271.71 -12.67 L 278.25 -12.67 Q 278.39 -12.67 278.39 -12.5 L 278.39 -12.5 L 278.39 -6.69 Q 278.39 -4.73 277.46 -3.13 Q 276.54 -1.54 275 -0.6 Q 273.46 0.35 271.53 0.35 Z" stroke-linecap="round" />
</g>
</g>
</g>
</svg>